HIERARCHY
ROOT Hips
{
	OFFSET -0.001795 -0.223333 0.028219
	CHANNELS 6 Xposition Yposition Zposition Zrotation Yrotation Xrotation
	JOINT LeftUpLeg
	{
		OFFSET 0.069520 -0.091406 -0.006815
		CHANNELS 3 Zrotation Yrotation Xrotation
		JOINT LeftLeg
		{
			OFFSET 0.034277 -0.375199 -0.004496
			CHANNELS 3 Zrotation Yrotation Xrotation
			JOINT LeftFoot
			{
				OFFSET -0.013596 -0.397961 -0.043693
				CHANNELS 3 Zrotation Yrotation Xrotation
				JOINT LeftToe
				{
					OFFSET 0.026358 -0.055791 0.119288
					CHANNELS 3 Zrotation Yrotation Xrotation
					End Site
					{
						OFFSET 0.000000 0.000000 0.000000
					}
				}
			}
		}
	}
	JOINT RightUpLeg
	{
		OFFSET -0.067670 -0.090522 -0.004320
		CHANNELS 3 Zrotation Yrotation Xrotation
		JOINT RightLeg
		{
			OFFSET -0.038290 -0.382569 -0.008850
			CHANNELS 3 Zrotation Yrotation Xrotation
			JOINT RightFoot
			{
				OFFSET 0.015774 -0.398415 -0.042312
				CHANNELS 3 Zrotation Yrotation Xrotation
				JOINT RightToe
				{
					OFFSET -0.025372 -0.048144 0.123348
					CHANNELS 3 Zrotation Yrotation Xrotation
					End Site
					{
						OFFSET 0.000000 0.000000 0.000000
					}
				}
			}
		}
	}
	JOINT Spine
	{
		OFFSET -0.002533 0.108963 -0.026696
		CHANNELS 3 Zrotation Yrotation Xrotation
		JOINT Spine1
		{
			OFFSET 0.005487 0.135180 0.001092
			CHANNELS 3 Zrotation Yrotation Xrotation
			JOINT Spine2
			{
				OFFSET 0.001457 0.052922 0.025425
				CHANNELS 3 Zrotation Yrotation Xrotation
				JOINT Neck
				{
					OFFSET -0.002778 0.213870 -0.042857
					CHANNELS 3 Zrotation Yrotation Xrotation
					JOINT Head
					{
						OFFSET 0.005152 0.064970 0.051349
						CHANNELS 3 Zrotation Yrotation Xrotation
						End Site
						{
							OFFSET 0.000000 0.000000 0.000000
						}
					}
				}
				JOINT LeftShoulder
				{
					OFFSET 0.078845 0.121749 -0.034090
					CHANNELS 3 Zrotation Yrotation Xrotation
					JOINT LeftArm
					{
						OFFSET 0.090977 0.030469 -0.008868
						CHANNELS 3 Zrotation Yrotation Xrotation
						JOINT LeftForeArm
						{
							OFFSET 0.259612 -0.012772 -0.027456
							CHANNELS 3 Zrotation Yrotation Xrotation
							JOINT LeftHand
							{
								OFFSET 0.249234 0.008986 -0.001171
								CHANNELS 3 Zrotation Yrotation Xrotation
								End Site
								{
									OFFSET 0.000000 0.000000 0.000000
								}
							}
						}
					}
				}
				JOINT RightShoulder
				{
					OFFSET -0.081759 0.118833 -0.038615
					CHANNELS 3 Zrotation Yrotation Xrotation
					JOINT RightArm
					{
						OFFSET -0.096012 0.032551 -0.009143
						CHANNELS 3 Zrotation Yrotation Xrotation
						JOINT RightForeArm
						{
							OFFSET -0.253742 -0.013329 -0.021401
							CHANNELS 3 Zrotation Yrotation Xrotation
							JOINT RightHand
							{
								OFFSET -0.255298 0.007772 -0.005559
								CHANNELS 3 Zrotation Yrotation Xrotation
								End Site
								{
									OFFSET 0.000000 0.000000 0.000000
								}
							}
						}
					}
				}
			}
		}
	}
}
MOTION
Frames: 8
Frame Time: 0.050000
0.000000 0.774197 0.000000 -19.534314 -9.680599 78.818942 5.825491 14.893512 -79.416357 -12.835274 8.804969 51.467396 9.143865 29.824717 -51.131770 0.000000 0.000000 0.000000 -3.138790 10.473408 -52.361398 28.397168 -36.222308 118.638695 -0.542399 -16.156595 64.601116 0.000000 0.000000 0.000000 -3.878872 16.430185 77.723966 1.618913 0.424300 -30.038201 -1.045400 -2.880218 21.044545 4.864758 0.775482 -45.547009 0.000000 0.000000 0.000000 46.096968 -10.873078 2.170909 5.263681 -39.322040 -2.270428 49.448770 18.442909 9.908476 0.000000 0.000000 0.000000 -34.767207 7.952710 4.248629 54.137043 54.645650 19.577100 -72.903671 0.473880 4.158514 0.000000 0.000000 0.000000
-0.037214 0.773030 0.128012 -18.740124 -4.897255 83.219240 16.721231 17.193171 -66.321608 -18.839940 10.287802 36.040085 7.681672 31.315646 -50.541616 0.000000 0.000000 0.000000 4.284289 4.079224 -30.331473 31.392936 -24.847854 109.591082 2.451385 -19.688066 59.127290 0.000000 0.000000 0.000000 -5.851478 16.842730 78.525234 3.063642 0.183823 -29.029804 1.148757 -1.314039 23.052354 4.086755 1.287205 -48.917806 0.000000 0.000000 0.000000 48.786127 -12.682763 2.520339 10.379378 -30.448419 -2.915004 44.773601 14.792862 6.842455 0.000000 0.000000 0.000000 -36.022184 14.554142 4.405414 45.216060 60.285817 18.901107 -72.395922 -13.296806 14.278842 0.000000 0.000000 0.000000
-0.077763 0.769061 0.263977 -14.626601 -1.317986 86.214917 25.130605 14.968172 -58.158349 -25.737524 12.869216 30.908851 7.309947 39.010009 -45.967811 0.000000 0.000000 0.000000 4.481264 1.126246 -18.696300 36.822464 -22.480186 92.054046 12.758208 -35.561417 -3.238066 0.000000 0.000000 0.000000 -7.566377 14.163195 78.788440 3.034423 0.253322 -29.624638 1.706588 0.243662 23.763585 -1.037457 2.465118 -44.919336 0.000000 0.000000 0.000000 47.706219 -10.312729 3.357302 10.651310 -34.543770 -3.968813 43.302758 15.749508 6.369512 0.000000 0.000000 0.000000 -38.493906 13.289912 3.657092 46.603796 61.323997 22.252845 -68.419069 -11.974980 12.673541 0.000000 0.000000 0.000000
-0.115262 0.747271 0.395777 -11.935925 2.530173 90.220702 35.865535 13.593313 -47.815067 -32.387944 18.493756 32.134382 7.479377 38.623067 -41.337600 0.000000 0.000000 0.000000 10.336315 -1.241239 -11.853993 39.794163 -16.051388 71.303561 -8.236927 -7.976142 -74.751726 0.000000 0.000000 0.000000 -8.173228 11.954525 79.390637 1.413620 0.532022 -29.440391 0.827173 -2.764152 28.003277 -3.255196 2.913592 -49.957875 0.000000 0.000000 0.000000 45.032125 -10.546196 2.714126 9.033911 -24.894575 -2.161818 46.337454 10.495378 5.359049 0.000000 0.000000 0.000000 -35.431962 15.414445 4.568981 35.801433 61.823715 14.125207 -75.939370 -13.888223 16.105939 0.000000 0.000000 0.000000
-0.145101 0.686530 0.520004 -5.179039 5.574269 93.655005 46.313193 11.178357 -39.905418 -38.700474 31.045917 44.063077 8.220130 35.263076 -42.989632 0.000000 0.000000 0.000000 18.121291 -2.716271 -11.605576 31.609486 -8.236620 58.912594 -12.929028 -2.614097 -80.291889 0.000000 0.000000 0.000000 -7.135887 6.779396 81.123314 -0.639453 0.865814 -29.361980 -2.002429 -8.607440 29.761452 -4.166461 2.626759 -48.654542 0.000000 0.000000 0.000000 41.641644 -9.731686 1.348617 3.717436 -21.853008 -0.932228 49.139156 3.855561 4.847188 0.000000 0.000000 0.000000 -33.425674 16.141589 6.227664 37.288931 72.001002 14.567066 -87.200180 -5.875034 13.387427 0.000000 0.000000 0.000000
-0.159768 0.608476 0.642539 -3.077698 8.230542 96.295620 52.209493 10.962742 -35.312939 -30.479447 39.736669 62.559374 8.980656 21.328192 -53.286693 0.000000 0.000000 0.000000 17.626444 -3.404397 -11.599275 37.685857 -6.813323 49.720305 -13.928459 -0.296207 -83.355809 0.000000 0.000000 0.000000 -3.760394 4.180447 84.070373 -1.214784 0.884739 -28.665373 -3.065731 -9.834204 27.502733 -10.373225 3.037190 -46.838821 0.000000 0.000000 0.000000 32.807534 -11.996512 2.060361 -3.804987 -24.450327 -0.096296 68.138606 -2.592041 5.016800 0.000000 0.000000 0.000000 -25.523446 13.706239 7.105074 56.825340 73.555702 26.699880 -99.621045 13.652322 -0.306833 0.000000 0.000000 0.000000
-0.162075 0.503715 0.764889 -0.159464 8.872937 98.071223 54.548801 8.759213 -31.922768 -33.545914 41.539193 59.710151 8.634759 21.910818 -60.878053 0.000000 0.000000 0.000000 19.375277 -5.066508 -8.465003 33.430229 -2.701693 37.247843 -14.897842 -1.962550 -87.401434 0.000000 0.000000 0.000000 -0.887873 0.359568 89.259799 -2.086828 1.072894 -31.448670 -5.113789 -16.267742 27.071460 -18.987282 2.358243 -53.930995 0.000000 0.000000 0.000000 18.166725 -12.007110 3.843853 -8.518986 -25.328042 0.073905 89.570740 -13.613519 1.470337 0.000000 0.000000 0.000000 -6.284188 24.677826 9.845980 38.530463 60.324725 4.149042 -111.837233 41.894151 -41.287706 0.000000 0.000000 0.000000
-0.155428 0.389504 0.878252 -3.362975 10.138101 97.688751 55.857684 3.813625 -18.875463 -45.373289 42.913607 40.583821 8.053075 17.901764 -67.583618 0.000000 0.000000 0.000000 17.179734 -11.083344 4.284508 31.949222 5.907050 15.389444 -15.858116 -2.343079 -90.495602 0.000000 0.000000 0.000000 5.248749 -0.202784 95.097958 -3.500160 1.091795 -31.096541 -6.165458 -17.016779 27.701391 -134.777071 -1.039620 -43.231852 0.000000 0.000000 0.000000 -6.271408 -19.263978 16.170937 8.888483 -20.753023 -3.717248 111.058778 -12.175147 -2.565712 0.000000 0.000000 0.000000 41.674726 31.456780 8.881624 6.047881 33.593327 -9.057137 -166.030854 68.476289 -138.270421 0.000000 0.000000 0.000000
